<svg xmlns="http://www.w3.org/2000/svg" data-name="Layer 1" viewBox="0 0 100 125" x="0px" y="0px"><defs><style>
      .cls-1 {
        stroke-width: 0px;
      }
    </style></defs><path class="cls-1" d="m86.49,12.39H13.51c-1.94,0-3.51,1.57-3.51,3.51v68.2c0,1.94,1.57,3.51,3.51,3.51h10.28c1.94,0,3.51-1.57,3.51-3.51v-28.56h45.39v28.56c0,1.94,1.57,3.51,3.51,3.51h10.28c1.94,0,3.51-1.57,3.51-3.51V15.9c0-1.94-1.57-3.51-3.51-3.51Zm-13.79,25.85H27.3v-8.55h45.39v8.55Zm-45.39,10.28v-3.26h45.39v3.26H27.3Zm55.67,32.07h-3.26v-28.55s0,0,0,0v-10.28s0,0,0,0v-15.57c0-1.94-1.57-3.51-3.51-3.51H23.79c-1.94,0-3.51,1.57-3.51,3.51v54.41h-3.26V19.41h65.96v61.18Z"/><text x="0" y="115" fill="#000000" font-size="5px" font-weight="bold" font-family="'Helvetica Neue', Helvetica, Arial-Unicode, Arial, Sans-serif">Created by Mila Yunita</text><text x="0" y="120" fill="#000000" font-size="5px" font-weight="bold" font-family="'Helvetica Neue', Helvetica, Arial-Unicode, Arial, Sans-serif">from the Noun Project</text></svg>